# xmcd database file
#
# Track frame offsets:
# 150
# 37908
# 63314
# 74262
# 104748
# 136340
# 152643
# 172974
# 184704
# 212238
# 223482
# 248716
# 268757
# 290588
#
# Disc length: 4309 seconds
#
# Revision: 1
# Processed by: cddbd v1.5.2PL0 Copyright (c) Steve Scherf et al.
# Submitted via: CD-Runner 2006.50
#
DISCID=db10d30e
DTITLE=King Curtis - Live at Fillmore West
DYEAR=1900
DGENRE=R&B
TTITLE0=Memphis Soul Stew
TTITLE1=A Whiter Shade of Pale
TTITLE2=Whole Lotta Love
TTITLE3=I Stand Accused
TTITLE4=Them Changes
TTITLE5=Ode to Billie Joe
TTITLE6=Mr. Bojangles
TTITLE7=Signed, Sealed, Delivered (I'm Yours)
TTITLE8=Soul Serenade
TTITLE9=My Sweet Lord (with Billy Preston)*
TTITLE10=Them Changes*
TTITLE11=Ode to Billie Joe*
TTITLE12=Soul Serenade*
TTITLE13=Memphis Soul Stew*
EXTD=
EXTT0=
EXTT1=
EXTT2=
EXTT3=
EXTT4=
EXTT5=
EXTT6=
EXTT7=
EXTT8=
EXTT9=
EXTT10=
EXTT11=
EXTT12=
EXTT13=
PLAYORDER=
